<svg xmlns="http://www.w3.org/2000/svg" viewBox="0 0 89.56 47.26"><defs><style>.cls-1{fill:#bde4f9;}.cls-2{fill:#f08102;}.cls-3{fill:#e6381d;}.cls-4{fill:#ffffff;}</style></defs><g id="Layer_2" data-name="Layer 2"><g id="Logo"><rect class="cls-1" y="41.61" width="27.8" height="5.65" rx="2.82"/><rect class="cls-2" x="30.88" y="41.61" width="27.8" height="5.65" rx="2.82"/><rect class="cls-3" x="61.76" y="41.61" width="27.8" height="5.65" rx="2.82"/><path class="cls-4" d="M4.43,28.17A11.23,11.23,0,0,1,1,22.67a25.38,25.38,0,0,1-1-7.21A22.72,22.72,0,0,1,.85,9.33,12.77,12.77,0,0,1,3.52,4.22a11.77,11.77,0,0,1,7.6-4,17.56,17.56,0,0,1,8.4.73,11.62,11.62,0,0,1,6.35,5.9,18.8,18.8,0,0,1,1.93,8.74A21.58,21.58,0,0,1,27,21.81a16.09,16.09,0,0,1-2,4.43A11.32,11.32,0,0,1,18,30.89a15.4,15.4,0,0,1-7.54.17A13.1,13.1,0,0,1,4.43,28.17Zm5.44-20C8.28,9.94,7.57,12.53,7.72,16s.79,5.84,1.93,7.21A5.11,5.11,0,0,0,12,24.71a5.46,5.46,0,0,0,3.46.11,5.81,5.81,0,0,0,3.12-2.55c.91-1.36,1.4-3.56,1.48-6.58a11.52,11.52,0,0,0-1.31-6.13,5.9,5.9,0,0,0-3-2.61,5.49,5.49,0,0,0-3.4-.06A5.88,5.88,0,0,0,9.87,8.2Z"/><path class="cls-4" d="M58.28,30.89h-4A3.7,3.7,0,0,1,50.45,27V11.6a4.65,4.65,0,0,0-1.64-4,6,6,0,0,0-3.69-1.25,5.73,5.73,0,0,0-3.63,1.25,4.74,4.74,0,0,0-1.59,4V30.89H32V13.19q0-7.71,4-10.33A17.54,17.54,0,0,1,44.89,0a17.1,17.1,0,0,1,9.2,2.61q4.2,2.61,4.19,10.55Z"/><path class="cls-4" d="M66.18,28.17a11.21,11.21,0,0,1-3.4-5.5,25.38,25.38,0,0,1-1-7.21,22.72,22.72,0,0,1,.85-6.13,12.77,12.77,0,0,1,2.67-5.11,11.77,11.77,0,0,1,7.6-4,17.56,17.56,0,0,1,8.4.73,11.62,11.62,0,0,1,6.35,5.9,18.8,18.8,0,0,1,1.93,8.74,21.58,21.58,0,0,1-.79,6.24,15.81,15.81,0,0,1-2,4.43,11.28,11.28,0,0,1-6.92,4.65,15.44,15.44,0,0,1-7.55.17A13.19,13.19,0,0,1,66.18,28.17Zm5.45-20Q69.25,10.81,69.47,16t1.93,7.21a5.2,5.2,0,0,0,2.39,1.53,5.46,5.46,0,0,0,3.46.11,5.81,5.81,0,0,0,3.12-2.55c.91-1.36,1.4-3.56,1.47-6.58a11.53,11.53,0,0,0-1.3-6.13,5.9,5.9,0,0,0-3-2.61,5.49,5.49,0,0,0-3.4-.06A5.88,5.88,0,0,0,71.63,8.2Z"/></g></g></svg>